HIERARCHY
ROOT Hips
{
    OFFSET   0.000000   0.000000   0.000000
    CHANNELS 6 Xposition Yposition Zposition Zrotation Xrotation Yrotation
    JOINT Chest
    {
        OFFSET   0.000000   8.007240   0.000000
        CHANNELS 3 Zrotation Xrotation Yrotation
        JOINT Chest2
        {
            OFFSET   0.000000  22.077100   0.000000
            CHANNELS 3 Zrotation Xrotation Yrotation
            JOINT Neck
            {
                OFFSET   0.000000  23.254800   0.000000
                CHANNELS 3 Zrotation Xrotation Yrotation
                JOINT Head
                {
                    OFFSET   0.000000  14.370000   1.956600
                    CHANNELS 3 Zrotation Xrotation Yrotation
                    End Site
                    {
                        OFFSET   0.000000  19.566000   0.000000
                    }
                }
            }
            JOINT LeftCollar
            {
                OFFSET   3.911900  19.017000  -0.467064
                CHANNELS 3 Zrotation Xrotation Yrotation
                JOINT LeftShoulder
                {
                    OFFSET  10.383700   0.000000   0.000000
                    CHANNELS 3 Zrotation Xrotation Yrotation
                    JOINT LeftElbow
                    {
                        OFFSET  26.662100   0.001476   0.000517
                        CHANNELS 3 Zrotation Xrotation Yrotation
                        JOINT LeftWrist
                        {
                            OFFSET  28.869000  -0.000025  -0.000106
                            CHANNELS 3 Zrotation Xrotation Yrotation
                            JOINT LeftFinger0
                            {
                                OFFSET   2.044660  -2.323460   3.252850
                                CHANNELS 3 Zrotation Xrotation Yrotation
                                JOINT LeftFinger01
                                {
                                    OFFSET   3.088130   0.000000   0.000000
                                    CHANNELS 3 Zrotation Xrotation Yrotation
                                    JOINT LeftFinger02
                                    {
                                        OFFSET   2.639460   0.000000   0.000000
                                        CHANNELS 3 Zrotation Xrotation Yrotation
                                        End Site
                                        {
                                            OFFSET   2.582190   0.000000   0.000000
                                        }
                                    }
                                }
                            }
                            JOINT LeftFinger1
                            {
                                OFFSET   8.364480   0.000000   3.252850
                                CHANNELS 3 Zrotation Xrotation Yrotation
                                JOINT LeftFinger11
                                {
                                    OFFSET   4.646930   0.000000   0.000000
                                    CHANNELS 3 Zrotation Xrotation Yrotation
                                    JOINT LeftFinger12
                                    {
                                        OFFSET   2.323460   0.000000   0.000000
                                        CHANNELS 3 Zrotation Xrotation Yrotation
                                        End Site
                                        {
                                            OFFSET   2.273050   0.000000   0.000000
                                        }
                                    }
                                }
                            }
                            JOINT LeftFinger2
                            {
                                OFFSET   8.364490   0.000015   1.078090
                                CHANNELS 3 Zrotation Xrotation Yrotation
                                JOINT LeftFinger21
                                {
                                    OFFSET   5.111620   0.000000   0.000000
                                    CHANNELS 3 Zrotation Xrotation Yrotation
                                    JOINT LeftFinger22
                                    {
                                        OFFSET   2.788160   0.000016   0.000000
                                        CHANNELS 3 Zrotation Xrotation Yrotation
                                        End Site
                                        {
                                            OFFSET   2.727660   0.000000   0.000000
                                        }
                                    }
                                }
                            }
                            JOINT LeftFinger3
                            {
                                OFFSET   7.899780   0.000017  -1.078090
                                CHANNELS 3 Zrotation Xrotation Yrotation
                                JOINT LeftFinger31
                                {
                                    OFFSET   4.646930   0.000000   0.000000
                                    CHANNELS 3 Zrotation Xrotation Yrotation
                                    JOINT LeftFinger32
                                    {
                                        OFFSET   2.323470   0.000000   0.000000
                                        CHANNELS 3 Zrotation Xrotation Yrotation
                                        End Site
                                        {
                                            OFFSET   2.273050   0.000000   0.000000
                                        }
                                    }
                                }
                            }
                            JOINT LeftFinger4
                            {
                                OFFSET   7.435090   0.000000  -3.252850
                                CHANNELS 3 Zrotation Xrotation Yrotation
                                JOINT LeftFinger41
                                {
                                    OFFSET   3.717550   0.000000   0.000000
                                    CHANNELS 3 Zrotation Xrotation Yrotation
                                    JOINT LeftFinger42
                                    {
                                        OFFSET   1.858770   0.000000   0.000000
                                        CHANNELS 3 Zrotation Xrotation Yrotation
                                        End Site
                                        {
                                            OFFSET   1.818440   0.000000   0.000000
                                        }
                                    }
                                }
                            }
                        }
                    }
                }
            }
            JOINT RightCollar
            {
                OFFSET  -3.911900  19.017000  -0.467063
                CHANNELS 3 Zrotation Xrotation Yrotation
                JOINT RightShoulder
                {
                    OFFSET -10.383700   0.000019   0.000000
                    CHANNELS 3 Zrotation Xrotation Yrotation
                    JOINT RightElbow
                    {
                        OFFSET -26.662100   0.001175   0.000102
                        CHANNELS 3 Zrotation Xrotation Yrotation
                        JOINT RightWrist
                        {
                            OFFSET -28.869000   0.000016  -0.000079
                            CHANNELS 3 Zrotation Xrotation Yrotation
                            JOINT RightFinger0
                            {
                                OFFSET  -2.044660  -2.323490   3.252850
                                CHANNELS 3 Zrotation Xrotation Yrotation
                                JOINT RightFinger01
                                {
                                    OFFSET  -3.088140   0.000000   0.000000
                                    CHANNELS 3 Zrotation Xrotation Yrotation
                                    JOINT RightFinger02
                                    {
                                        OFFSET  -2.639460   0.000000   0.000000
                                        CHANNELS 3 Zrotation Xrotation Yrotation
                                        End Site
                                        {
                                            OFFSET  -2.582190   0.000000   0.000000
                                        }
                                    }
                                }
                            }
                            JOINT RightFinger1
                            {
                                OFFSET  -8.364480   0.000000   3.252850
                                CHANNELS 3 Zrotation Xrotation Yrotation
                                JOINT RightFinger11
                                {
                                    OFFSET  -4.646930   0.000000   0.000000
                                    CHANNELS 3 Zrotation Xrotation Yrotation
                                    JOINT RightFinger12
                                    {
                                        OFFSET  -2.323470   0.000000   0.000000
                                        CHANNELS 3 Zrotation Xrotation Yrotation
                                        End Site
                                        {
                                            OFFSET  -2.273050   0.000000   0.000000
                                        }
                                    }
                                }
                            }
                            JOINT RightFinger2
                            {
                                OFFSET  -8.364480   0.000000   1.078090
                                CHANNELS 3 Zrotation Xrotation Yrotation
                                JOINT RightFinger21
                                {
                                    OFFSET  -5.111620   0.000000   0.000000
                                    CHANNELS 3 Zrotation Xrotation Yrotation
                                    JOINT RightFinger22
                                    {
                                        OFFSET  -2.788160   0.000000   0.000000
                                        CHANNELS 3 Zrotation Xrotation Yrotation
                                        End Site
                                        {
                                            OFFSET  -2.727660   0.000000   0.000000
                                        }
                                    }
                                }
                            }
                            JOINT RightFinger3
                            {
                                OFFSET  -7.899780   0.000000  -1.078090
                                CHANNELS 3 Zrotation Xrotation Yrotation
                                JOINT RightFinger31
                                {
                                    OFFSET  -4.646930   0.000000   0.000000
                                    CHANNELS 3 Zrotation Xrotation Yrotation
                                    JOINT RightFinger32
                                    {
                                        OFFSET  -2.323470   0.000000   0.000000
                                        CHANNELS 3 Zrotation Xrotation Yrotation
                                        End Site
                                        {
                                            OFFSET  -2.273050   0.000000   0.000000
                                        }
                                    }
                                }
                            }
                            JOINT RightFinger4
                            {
                                OFFSET  -7.435090   0.000000  -3.252850
                                CHANNELS 3 Zrotation Xrotation Yrotation
                                JOINT RightFinger41
                                {
                                    OFFSET  -3.717550   0.000000   0.000000
                                    CHANNELS 3 Zrotation Xrotation Yrotation
                                    JOINT RightFinger42
                                    {
                                        OFFSET  -1.858770   0.000000   0.000000
                                        CHANNELS 3 Zrotation Xrotation Yrotation
                                        End Site
                                        {
                                            OFFSET  -1.818440   0.000000   0.000000
                                        }
                                    }
                                }
                            }
                        }
                    }
                }
            }
        }
    }
    JOINT LeftHip
    {
        OFFSET   9.783040   0.000000   0.000000
        CHANNELS 3 Zrotation Xrotation Yrotation
        JOINT LeftKnee
        {
            OFFSET   0.000032 -41.789100  -0.002222
            CHANNELS 3 Zrotation Xrotation Yrotation
            JOINT LeftAnkle
            {
                OFFSET   0.000087 -41.133200  -0.000135
                CHANNELS 3 Zrotation Xrotation Yrotation
                JOINT LeftToe
                {
                    OFFSET   0.000000  -6.358960  14.674500
                    CHANNELS 3 Zrotation Xrotation Yrotation
                    End Site
                    {
                        OFFSET   0.000000   0.000000   3.913200
                    }
                }
            }
        }
    }
    JOINT RightHip
    {
        OFFSET  -9.783040   0.000000   0.000000
        CHANNELS 3 Zrotation Xrotation Yrotation
        JOINT RightKnee
        {
            OFFSET   0.000047 -41.789100  -0.000896
            CHANNELS 3 Zrotation Xrotation Yrotation
            JOINT RightAnkle
            {
                OFFSET  -0.000117 -41.133300  -0.000248
                CHANNELS 3 Zrotation Xrotation Yrotation
                JOINT RightToe
                {
                    OFFSET   0.000000  -6.358970  14.674500
                    CHANNELS 3 Zrotation Xrotation Yrotation
                    End Site
                    {
                        OFFSET   0.000000   0.000000   3.913200
                    }
                }
            }
        }
    }
}
MOTION
Frames: 4
Frame Time:   0.016667
 -0.768568  89.466400  -0.791497  -0.844716  -4.732170   0.426075   0.841139   4.259810  -0.033847   1.691860   8.518680  -0.131147  -0.732928   0.226129   0.013386  -1.208090   0.458321   4.658730  -6.151930   2.131450   7.823740 -76.755900   7.647750  -3.699930   0.110742   5.432920 -14.653000   9.479490  -4.364540  -2.099850  40.127500  32.062300 -52.716400 -30.978600  -0.003072   0.002070 -10.484200  -0.001719   0.009458 -32.639800   0.657246  -1.026010 -26.718400  -0.002881  -0.001026 -18.694500  -0.008249  -0.002786 -29.514900  -3.745090   6.574660 -44.590800   0.001281   0.006632 -29.700200   0.000889  -0.009714 -27.546800  -4.156670   7.912860 -30.955400  -0.001988   0.008611 -20.613200  -0.008056  -0.001203 -30.933300  -4.618960   7.653340 -46.863600  -0.000916  -0.000500 -31.211200  -0.002555  -0.007796   9.867400   3.936190   7.196500  67.877300  -0.959302   0.103373   4.229790  -5.055590  14.641200 -19.533400   0.452855   0.756038 -61.536800  53.842300 108.771000   7.375720   0.000833  -0.000000  -1.312130  -0.001214  -0.000722  33.873300   1.450060   2.158890  27.736900  -0.003515   0.003844  19.415800  -0.014368   0.003358  30.582200  -1.704520  -2.881010  45.939200  -0.013905   0.004200  30.595500   0.003514   0.003320  28.400800  -4.927900  -9.020480  42.207800  -0.013730   0.004663  28.110400   0.004371   0.004065  41.173100  -6.809380  -7.705610  62.449000  -0.002231   0.013745  41.591000   0.005665   0.008462   4.263060   4.880710  -0.188534   1.051830   2.904160  13.820000  -4.590770  -2.916150  -1.367950  -0.000000   0.000000   0.000000   0.568039   3.572290  -1.672700  -0.701864   5.458570 -10.497500   1.244430  -5.486980   2.644850   0.000000   0.000000   0.000000
 -0.743910  89.466300  -0.779459  -0.843389  -4.757360   0.442867   0.840828   4.260110  -0.024355   1.690520   8.519310  -0.112059  -0.737280   0.250879   0.013382  -1.213500   0.508554   4.625650  -6.151310   2.131560   7.807310 -76.761600   7.624530  -3.704740   0.113268   5.460120 -14.678300   9.480880  -4.378830  -2.099900  40.135400  32.065900 -52.710100 -30.971900  -0.003073   0.002085 -10.484100  -0.001706   0.009453 -32.640200   0.650996  -1.016250 -26.714800  -0.002875  -0.001026 -18.693900  -0.008244  -0.002785 -29.514500  -3.745090   6.574660 -44.595700   0.001286   0.006639 -29.699700   0.000893  -0.009716 -27.544900  -4.163570   7.925890 -30.959600  -0.001982   0.008612 -20.613000  -0.008050  -0.001200 -30.942900  -4.627950   7.665140 -46.879600  -0.000909  -0.000501 -31.221900  -0.002545  -0.007792   9.883320   3.934860   7.197800  67.900600  -0.982366   0.070643   4.219430  -5.041530  14.634500 -19.533000   0.459709   0.781671 -61.451100  53.859400 108.755000   7.356630   0.000844   0.000000  -1.321680  -0.001211  -0.000606  33.871600   1.454320   2.165480  27.735600  -0.003515   0.003822  19.414900  -0.014374   0.003342  30.586500  -1.704830  -2.881460  45.944800  -0.013886   0.004177  30.599300   0.003503   0.003305  28.400800  -4.927800  -9.020300  42.193200  -0.013757   0.004629  28.100600   0.004372   0.004038  41.175300  -6.809180  -7.705780  62.452000  -0.002253   0.013731  41.593000   0.005613   0.008434   4.245230   4.920040  -0.193947   1.049050   2.890050  13.807300  -4.578260  -2.916210  -1.368230   0.000000   0.000000   0.000000   0.552820   3.611990  -1.688690  -0.702160   5.446040 -10.519800   1.228340  -5.463400   2.637070   0.000000   0.000000   0.000000
 -0.703026  89.466200  -0.759298  -0.841212  -4.799560   0.468026   0.840372   4.262170  -0.008408   1.688410   8.523740  -0.080039  -0.746316   0.290087   0.013369  -1.226060   0.588103   4.576230  -6.150360   2.131720   7.781980 -76.770400   7.592280  -3.717220   0.113223   5.486950 -14.718200   9.482010  -4.400460  -2.099960  40.141100  32.072100 -52.699600 -30.965200  -0.003074   0.002099 -10.483900  -0.001684   0.009444 -32.641500   0.640332  -0.999529 -26.711300  -0.002859  -0.001028 -18.693400  -0.008228  -0.002783 -29.514000  -3.745090   6.574660 -44.602800   0.001301   0.006659 -29.699200   0.000904  -0.009721 -27.542000  -4.173980   7.945650 -30.963900  -0.001966   0.008616 -20.612800  -0.008033  -0.001192 -30.956100  -4.641390   7.683130 -46.901900  -0.000889  -0.000502 -31.236700  -0.002518  -0.007783   9.912410   3.925600   7.206900  67.946100  -1.005430   0.001775   4.183820  -5.027470  14.627800 -19.528800   0.470727   0.823445 -61.299200  53.889700 108.727000   7.285690   0.000862  -0.000000  -1.357150  -0.001209  -0.000382  33.866600   1.458590   2.172070  27.731700  -0.003513   0.003776  19.412200  -0.014389   0.003308  30.590700  -1.707010  -2.884580  45.950500  -0.013843   0.004127  30.603000   0.003473   0.003272  28.400900  -4.927630  -9.020060  42.178500  -0.013818   0.004555  28.090900   0.004377   0.003978  41.185600  -6.808970  -7.705960  62.467400  -0.002301   0.013702  41.603300   0.005500   0.008373   4.216220   4.989270  -0.203041   1.042260   2.862180  13.788100  -4.556140  -2.916600  -1.368520  -0.000000   0.000000   0.000000   0.527711   3.681520  -1.704730  -0.702932   5.425020 -10.555400   1.210520  -5.426940   2.617190  -0.000000   0.000000  -0.000000
 -0.670761  89.466100  -0.742526  -0.839740  -4.832280   0.481589   0.839907   4.268310   0.004526   1.686530   8.536300  -0.054130  -0.757747   0.319877   0.013343  -1.244690   0.648525   4.550460  -6.154160   2.130900   7.768580 -76.778500   7.579460  -3.737010   0.108309   5.484660 -14.745800   9.478590  -4.413640  -2.094120  40.150800  32.093300 -52.701100 -30.965300  -0.003060   0.002094 -10.483900  -0.001665   0.009436 -32.644900   0.630618  -0.984234 -26.713500  -0.002831  -0.001032 -18.696900  -0.008200  -0.002776 -29.516700  -3.745090   6.574670 -44.604600   0.001325   0.006692 -29.702000   0.000920  -0.009730 -27.540300  -4.179840   7.957240 -30.960000  -0.001941   0.008623 -20.613300  -0.008006  -0.001180 -30.959300  -4.648600   7.693950 -46.908100  -0.000859  -0.000504 -31.240800  -0.002475  -0.007767   9.943380   3.893600   7.244380  67.992900  -0.992054  -0.082987   4.121150  -5.054400  14.641100 -19.498800   0.474734   0.861498 -61.158200  53.917900 108.700000   7.184060   0.000878  -0.000000  -1.407960  -0.001211  -0.000066  33.856000   1.438630   2.143230  27.722500  -0.003510   0.003712  19.405800  -0.014412   0.003258  30.582900  -1.730210  -2.924350  45.940600  -0.013780   0.004057  30.596400   0.003428   0.003225  28.401000  -4.927460  -9.019950  42.187600  -0.013907   0.004449  28.097000   0.004382   0.003895  41.208100  -6.809040  -7.704830  62.500900  -0.002369   0.013662  41.625700   0.005342   0.008288   4.195110   5.052460  -0.211017   1.031570   2.828660  13.778400  -4.535380  -2.918180  -1.367400   0.000000   0.000000  -0.000000   0.509061   3.750890  -1.701140  -0.704695   5.403750 -10.580200   1.206800  -5.404740   2.585460  -0.000000   0.000000   0.000000
